<?xml version="1.0" encoding="utf-8"?>
<!-- Generator: Adobe Illustrator 19.1.0, SVG Export Plug-In . SVG Version: 6.00 Build 0)  -->
<svg version="1.1" id="Layer_1" xmlns="http://www.w3.org/2000/svg" xmlns:xlink="http://www.w3.org/1999/xlink" x="0px" y="0px"
	 viewBox="0 0 20 20" style="enable-background:new 0 0 20 20;" xml:space="preserve">
<style type="text/css">
	.st0{fill:#FFFFFF;}
</style>
<g>
	<path class="st0" d="M4.7,10c0,3.1,2.5,5.6,5.6,5.6c3.1,0,5.6-2.5,5.6-5.6c0-3.1-2.5-5.6-5.6-5.6C7.2,4.4,4.7,6.9,4.7,10z
		 M10.3,13.5c-1.9,0-3.5-1.6-3.5-3.5c0-0.6,0.1-1.1,0.4-1.6l4.7,4.7C11.4,13.4,10.9,13.5,10.3,13.5z M13.8,10c0,0.6-0.1,1.1-0.4,1.6
		L8.7,6.9c0.5-0.3,1-0.4,1.6-0.4C12.2,6.5,13.8,8.1,13.8,10z"/>
	<path class="st0" d="M19.8,5.4l-4.9-5C14.6,0.2,14.4,0,14,0H6.6C6.2,0,5.9,0.2,5.7,0.4l-5.2,5C0.3,5.6,0,6,0,6.3v7.5
		c0,0.3,0.3,0.6,0.5,0.9l5.1,5c0.2,0.2,0.6,0.4,1,0.4H14c0.3,0,0.6-0.1,0.9-0.4l4.8-5c0.2-0.2,0.2-0.6,0.2-0.9V6.3
		C20,6,20,5.6,19.8,5.4z M19,13.8L14,19H6.6L1,13.8V6.3L6.6,1H14l5,5.3V13.8z"/>
</g>
</svg>
