<?xml version="1.0" encoding="utf-8"?>
<!-- Generator: Adobe Illustrator 19.1.0, SVG Export Plug-In . SVG Version: 6.00 Build 0)  -->
<svg version="1.1" id="Layer_1" xmlns="http://www.w3.org/2000/svg" xmlns:xlink="http://www.w3.org/1999/xlink" x="0px" y="0px"
	 viewBox="0 0 20 20" style="enable-background:new 0 0 20 20;" xml:space="preserve">
<style type="text/css">
	.st0{fill:#333333;}
</style>
<path class="st0" d="M10,1.2c2.3,0,4.5,0.9,6.2,2.6c1.7,1.7,2.6,3.9,2.6,6.2s-0.9,4.5-2.6,6.2c-1.7,1.7-3.8,2.6-6.2,2.6
	s-4.5-0.9-6.2-2.6c-1.7-1.7-2.6-3.8-2.6-6.2s0.9-4.5,2.6-6.2C5.5,2.2,7.7,1.2,10,1.2 M10,0C4.5,0,0,4.5,0,10s4.5,10,10,10
	s10-4.5,10-10S15.5,0,10,0L10,0z M8.7,14.4C8.8,14.4,8.8,14.4,8.7,14.4c0.4,0,0.8-0.2,1-0.5l5-6.3c0.4-0.5,0.3-1.3-0.2-1.8
	c-0.5-0.4-1.3-0.3-1.8,0.2l-4.1,5.2L7.1,9.7c-0.5-0.5-1.3-0.5-1.8,0c-0.5,0.5-0.5,1.3,0,1.8L7.9,14C8.1,14.2,8.4,14.4,8.7,14.4
	L8.7,14.4z"/>
</svg>
