<?xml version="1.0" encoding="utf-8"?>
<!-- Generator: Adobe Illustrator 19.1.0, SVG Export Plug-In . SVG Version: 6.00 Build 0)  -->
<svg version="1.1" id="Layer_1" xmlns="http://www.w3.org/2000/svg" xmlns:xlink="http://www.w3.org/1999/xlink" x="0px" y="0px"
	 viewBox="0 0 20 20" style="enable-background:new 0 0 20 20;" xml:space="preserve">
<style type="text/css">
	.st0{fill:#333333;}
</style>
<path class="st0" d="M10,1.2c2.3,0,4.5,0.9,6.2,2.6c1.7,1.7,2.6,3.9,2.6,6.2c0,2.3-0.9,4.5-2.6,6.2c-1.7,1.7-3.9,2.6-6.2,2.6
	s-4.5-0.9-6.2-2.6c-1.7-1.7-2.6-3.9-2.6-6.2c0-2.3,0.9-4.5,2.6-6.2C5.5,2.2,7.7,1.2,10,1.2 M10,0C4.5,0,0,4.5,0,10s4.5,10,10,10
	s10-4.5,10-10S15.5,0,10,0L10,0z M10.6,8.1c1,0,1.9-0.8,1.9-1.9s-0.8-1.9-1.9-1.9c-1,0-1.9,0.8-1.9,1.9S9.6,8.1,10.6,8.1z
	 M11.8,14.2c-0.1-0.2-0.3-0.4-0.6-0.4c-0.1,0-0.1,0-0.2,0L10.3,14l0.9-3.7C11.4,9.6,11,9,10.3,8.8c-0.1,0-0.2,0-0.3,0c0,0,0,0,0,0
	c-0.1,0-0.2,0-0.3,0.1l-2.5,1.2c-0.3,0.1-0.4,0.5-0.3,0.8c0.1,0.3,0.3,0.4,0.6,0.4c0.1,0,0.1,0,0.2,0L8.5,11l-0.9,3.7
	c-0.2,0.7,0.2,1.3,0.9,1.5c0.1,0,0.2,0,0.3,0h0c0.1,0,0.2,0,0.3-0.1l2.5-1.2C11.8,14.8,11.9,14.5,11.8,14.2z"/>
</svg>
