<?xml version="1.0" encoding="utf-8"?>
<!-- Generator: Adobe Illustrator 19.1.0, SVG Export Plug-In . SVG Version: 6.00 Build 0)  -->
<svg version="1.1" id="Layer_1" xmlns="http://www.w3.org/2000/svg" xmlns:xlink="http://www.w3.org/1999/xlink" x="0px" y="0px"
	 viewBox="0 0 20 20" style="enable-background:new 0 0 20 20;" xml:space="preserve">
<style type="text/css">
	.st0{fill:#333333;}
</style>
<path class="st0" d="M19.7,16.4l-7.5-15C11.8,0.5,10.9,0,10,0C9.1,0,8.2,0.5,7.8,1.4l-7.5,15c-0.4,0.8-0.3,1.7,0.1,2.4
	C0.8,19.6,1.6,20,2.5,20h15c0.9,0,1.7-0.4,2.1-1.2C20.1,18.1,20.1,17.2,19.7,16.4z M18.6,18.2c-0.2,0.4-0.6,0.6-1.1,0.6h-15
	c-0.4,0-0.8-0.2-1.1-0.6c-0.2-0.4-0.2-0.8-0.1-1.2l7.5-15C9.1,1.5,9.5,1.2,10,1.2c0.5,0,0.9,0.3,1.1,0.7l7.5,15
	C18.8,17.3,18.8,17.8,18.6,18.2z M10,13.8c-0.7,0-1.2-0.6-1.2-1.2V6.2C8.8,5.6,9.3,5,10,5s1.3,0.6,1.3,1.2v6.3
	C11.3,13.2,10.7,13.8,10,13.8L10,13.8z M10,17.5c0.7,0,1.3-0.6,1.3-1.2c0-0.7-0.6-1.2-1.3-1.2s-1.2,0.6-1.2,1.2
	C8.8,16.9,9.3,17.5,10,17.5z"/>
</svg>
